<mxfile host="app.diagrams.net" modified="2022-02-11T16:33:59.240Z" agent="5.0 (Windows)" etag="ZJRkFfKpc7VMbj8LjSy1" version="15.5.1" type="github">
  <diagram id="FTEjYarkI-pQHFIqu1EU" name="Page-1">
    <mxGraphModel dx="1038" dy="536" grid="1" gridSize="10" guides="1" tooltips="1" connect="1" arrows="1" fold="1" page="1" pageScale="1" pageWidth="1169" pageHeight="827" math="0" shadow="0">
      <root>
        <mxCell id="0" />
        <mxCell id="1" parent="0" />
        <mxCell id="xHRhSKmE6N1NQW3UqP1q-1" value="Contrats-rd-web" style="rounded=1;whiteSpace=wrap;html=1;" vertex="1" parent="1">
          <mxGeometry x="110" y="240" width="120" height="60" as="geometry" />
        </mxCell>
        <mxCell id="xHRhSKmE6N1NQW3UqP1q-2" value="intranet-services" style="rounded=1;whiteSpace=wrap;html=1;" vertex="1" parent="1">
          <mxGeometry x="280" y="240" width="120" height="60" as="geometry" />
        </mxCell>
        <mxCell id="xHRhSKmE6N1NQW3UqP1q-3" value="Jolt" style="rounded=1;whiteSpace=wrap;html=1;" vertex="1" parent="1">
          <mxGeometry x="450" y="240" width="120" height="60" as="geometry" />
        </mxCell>
        <mxCell id="xHRhSKmE6N1NQW3UqP1q-4" value="Cobol" style="rounded=1;whiteSpace=wrap;html=1;" vertex="1" parent="1">
          <mxGeometry x="620" y="240" width="120" height="60" as="geometry" />
        </mxCell>
        <mxCell id="xHRhSKmE6N1NQW3UqP1q-5" value="BDD" style="rounded=1;whiteSpace=wrap;html=1;" vertex="1" parent="1">
          <mxGeometry x="790" y="240" width="120" height="60" as="geometry" />
        </mxCell>
        <mxCell id="xHRhSKmE6N1NQW3UqP1q-6" value="" style="shape=flexArrow;endArrow=classic;startArrow=classic;html=1;rounded=0;exitX=1;exitY=0.5;exitDx=0;exitDy=0;entryX=0;entryY=0.5;entryDx=0;entryDy=0;" edge="1" parent="1" source="xHRhSKmE6N1NQW3UqP1q-1" target="xHRhSKmE6N1NQW3UqP1q-2">
          <mxGeometry width="100" height="100" relative="1" as="geometry">
            <mxPoint x="230" y="360" as="sourcePoint" />
            <mxPoint x="330" y="260" as="targetPoint" />
          </mxGeometry>
        </mxCell>
        <mxCell id="xHRhSKmE6N1NQW3UqP1q-7" value="" style="shape=flexArrow;endArrow=classic;startArrow=classic;html=1;rounded=0;exitX=1;exitY=0.5;exitDx=0;exitDy=0;entryX=0;entryY=0.5;entryDx=0;entryDy=0;" edge="1" parent="1">
          <mxGeometry width="100" height="100" relative="1" as="geometry">
            <mxPoint x="400" y="269.5" as="sourcePoint" />
            <mxPoint x="450" y="269.5" as="targetPoint" />
          </mxGeometry>
        </mxCell>
        <mxCell id="xHRhSKmE6N1NQW3UqP1q-9" value="" style="shape=flexArrow;endArrow=classic;startArrow=classic;html=1;rounded=0;exitX=1;exitY=0.5;exitDx=0;exitDy=0;entryX=0;entryY=0.5;entryDx=0;entryDy=0;" edge="1" parent="1">
          <mxGeometry width="100" height="100" relative="1" as="geometry">
            <mxPoint x="570" y="269.5" as="sourcePoint" />
            <mxPoint x="620" y="269.5" as="targetPoint" />
          </mxGeometry>
        </mxCell>
        <mxCell id="xHRhSKmE6N1NQW3UqP1q-10" value="" style="shape=flexArrow;endArrow=classic;startArrow=classic;html=1;rounded=0;exitX=1;exitY=0.5;exitDx=0;exitDy=0;entryX=0;entryY=0.5;entryDx=0;entryDy=0;" edge="1" parent="1">
          <mxGeometry width="100" height="100" relative="1" as="geometry">
            <mxPoint x="740" y="269.5" as="sourcePoint" />
            <mxPoint x="790" y="269.5" as="targetPoint" />
          </mxGeometry>
        </mxCell>
      </root>
    </mxGraphModel>
  </diagram>
</mxfile>
